<!DOCTYPE svg PUBLIC "-//W3C//DTD SVG 20010904//EN" "http://www.w3.org/TR/2001/REC-SVG-20010904/DTD/svg10.dtd">
<svg version="1.0" xmlns="http://www.w3.org/2000/svg" width="711px" height="711px" viewBox="0 0 7110 7110" preserveAspectRatio="xMidYMid meet">
<g id="layer101" fill="#000000" stroke="none">
 <path d="M3170 7004 c-338 -37 -693 -132 -1016 -274 -787 -345 -1429 -987 -1774 -1774 -200 -455 -290 -891 -290 -1401 0 -334 33 -599 111 -893 270 -1016 994 -1862 1953 -2282 455 -200 891 -290 1401 -290 334 0 599 33 893 111 1016 270 1862 994 2282 1953 200 455 290 891 290 1401 0 334 -33 599 -111 893 -270 1016 -994 1862 -1953 2282 -330 145 -677 238 -1029 275 -181 19 -580 18 -757 -1z"/>
 </g>
<g id="layer102" fill="#ffffff" stroke="none">
 <path d="M3170 7004 c-338 -37 -693 -132 -1016 -274 -787 -345 -1429 -987 -1774 -1774 -200 -455 -290 -891 -290 -1401 0 -334 33 -599 111 -893 270 -1016 994 -1862 1953 -2282 455 -200 891 -290 1401 -290 334 0 599 33 893 111 1016 270 1862 994 2282 1953 200 455 290 891 290 1401 0 334 -33 599 -111 893 -270 1016 -994 1862 -1953 2282 -330 145 -677 238 -1029 275 -181 19 -580 18 -757 -1z m735 -250 c381 -41 717 -140 1081 -319 321 -158 592 -352 844 -605 253 -252 447 -523 605 -844 233 -475 336 -911 336 -1431 0 -520 -103 -956 -336 -1431 -158 -321 -352 -592 -605 -844 -252 -253 -523 -447 -844 -605 -475 -233 -911 -336 -1431 -336 -520 0 -956 103 -1431 336 -321 158 -592 352 -844 605 -253 252 -447 523 -605 844 -233 475 -336 911 -336 1431 0 321 41 613 126 900 118 402 331 809 595 1135 108 135 325 352 460 460 326 263 734 477 1134 595 399 117 827 155 1251 109z"/>
 <path d="M3240 6335 c-19 -7 -58 -14 -87 -14 -28 -1 -53 -6 -55 -12 -2 -5 -24 -13 -48 -16 -25 -2 -59 -11 -77 -19 -17 -8 -40 -14 -52 -14 -12 0 -21 -4 -21 -10 0 -5 -13 -10 -29 -10 -16 0 -36 -7 -45 -15 -8 -8 -20 -15 -27 -15 -19 0 -259 -121 -259 -131 0 -5 -7 -9 -16 -9 -9 0 -33 -13 -54 -30 -21 -16 -42 -30 -47 -30 -4 0 -19 -10 -33 -23 -14 -12 -41 -34 -60 -47 -78 -55 -278 -255 -350 -349 -14 -18 -31 -39 -37 -46 -7 -8 -13 -19 -13 -25 0 -6 -7 -13 -15 -16 -8 -4 -15 -11 -15 -16 0 -6 -13 -27 -28 -47 -16 -20 -32 -43 -35 -51 -4 -8 -20 -37 -37 -65 -16 -27 -32 -57 -36 -65 -3 -8 -10 -22 -15 -30 -5 -8 -12 -22 -15 -30 -3 -8 -13 -31 -21 -50 -8 -19 -19 -46 -25 -60 -5 -14 -16 -38 -24 -53 -8 -16 -14 -39 -14 -51 0 -12 -7 -31 -15 -42 -8 -10 -15 -32 -15 -47 0 -16 -5 -38 -12 -50 -13 -23 -22 -75 -39 -217 -5 -47 -14 -101 -19 -120 -13 -46 -13 -285 0 -330 5 -19 14 -76 19 -125 16 -140 26 -198 39 -222 7 -12 12 -37 12 -55 0 -18 7 -42 15 -52 8 -11 15 -31 15 -45 0 -14 7 -35 15 -45 8 -11 15 -32 15 -48 0 -15 5 -28 10 -28 6 0 10 -8 10 -17 0 -10 7 -31 15 -47 8 -15 15 -36 15 -46 0 -10 7 -23 15 -30 8 -7 15 -20 15 -30 0 -10 7 -23 15 -30 8 -7 15 -20 15 -30 0 -10 7 -23 15 -30 8 -7 15 -21 15 -31 0 -11 5 -19 10 -19 6 0 10 -9 10 -19 0 -11 5 -23 11 -26 5 -4 15 -17 20 -28 5 -12 18 -35 29 -52 11 -16 23 -37 27 -45 3 -8 9 -17 12 -20 10 -9 71 -100 71 -107 0 -3 6 -11 14 -17 20 -17 156 -205 156 -216 0 -6 4 -10 10 -10 5 0 12 -11 16 -25 3 -14 10 -25 15 -25 5 0 9 -8 9 -19 0 -10 7 -24 15 -31 8 -7 15 -22 15 -34 0 -11 7 -30 15 -40 8 -11 15 -29 15 -41 0 -12 5 -26 11 -32 19 -19 31 -132 38 -358 4 -147 10 -227 19 -242 6 -12 12 -41 12 -65 0 -24 7 -52 15 -62 8 -11 15 -34 15 -50 0 -17 7 -40 15 -50 8 -11 15 -27 15 -36 0 -16 17 -59 41 -102 5 -10 9 -25 9 -33 0 -9 7 -18 15 -21 8 -4 15 -14 15 -23 0 -9 5 -22 11 -28 14 -14 36 -52 45 -75 3 -10 10 -18 15 -18 5 0 9 -5 9 -11 0 -32 257 -297 310 -321 16 -7 30 -16 30 -19 0 -8 78 -56 135 -82 22 -10 52 -25 67 -33 14 -8 34 -14 45 -14 10 0 27 -7 37 -15 11 -8 34 -15 50 -15 17 -1 42 -7 56 -15 19 -11 71 -14 235 -14 164 0 216 3 235 14 14 8 39 14 56 15 16 0 39 7 50 15 10 8 27 15 37 15 11 0 31 6 45 14 15 7 45 22 67 32 90 42 214 134 310 229 98 98 165 175 165 190 0 5 11 23 25 41 14 18 25 37 25 42 0 5 7 15 15 22 8 7 15 20 15 30 0 10 7 20 15 24 8 3 15 12 15 19 0 13 19 59 41 99 5 10 9 26 9 36 0 10 7 27 15 38 8 10 15 33 15 50 0 16 7 39 15 50 8 10 15 37 15 59 0 22 7 58 15 80 9 27 14 83 15 170 l0 130 225 -530 c138 -326 233 -537 246 -547 14 -12 38 -18 71 -18 63 0 98 31 98 86 0 26 -84 235 -282 703 -191 451 -281 675 -280 695 2 17 9 37 17 46 8 9 15 24 15 33 0 9 4 17 9 17 5 0 12 11 15 25 4 14 11 25 16 25 6 0 10 4 10 10 0 11 136 199 156 216 8 6 14 14 14 17 0 7 61 98 71 107 3 3 9 12 12 20 4 8 16 29 27 45 11 17 24 40 29 52 5 11 15 24 20 28 6 3 11 15 11 26 0 10 5 19 10 19 6 0 10 8 10 19 0 10 7 24 15 31 8 7 15 20 15 30 0 10 7 23 15 30 8 7 15 20 15 30 0 10 7 23 15 30 8 7 15 20 15 30 0 10 7 31 15 46 8 16 15 37 15 47 0 9 5 17 10 17 6 0 10 13 10 28 0 16 7 37 15 48 8 10 15 31 15 45 0 14 7 34 15 45 8 10 15 34 15 52 0 18 5 43 12 55 13 25 24 86 39 227 5 52 14 108 19 124 13 39 13 281 -1 328 -5 21 -14 75 -19 120 -15 134 -25 192 -38 215 -7 12 -12 34 -12 50 0 15 -7 37 -15 47 -8 11 -15 32 -15 47 0 14 -7 32 -15 39 -8 7 -15 21 -15 31 0 11 -4 27 -10 37 -5 9 -16 35 -25 57 -9 22 -21 47 -26 55 -5 8 -11 21 -14 28 -3 6 -7 18 -10 25 -3 6 -19 35 -35 62 -17 28 -35 60 -40 73 -5 12 -14 22 -19 22 -5 0 -11 8 -15 18 -8 24 -29 56 -43 65 -7 4 -13 13 -13 18 0 6 -6 16 -12 24 -7 7 -24 28 -38 46 -73 96 -271 293 -350 349 -19 13 -46 35 -60 47 -14 13 -29 23 -33 23 -5 0 -26 14 -47 30 -21 17 -45 30 -53 30 -8 0 -17 4 -19 9 -4 12 -238 131 -256 131 -7 0 -20 7 -28 15 -9 8 -29 15 -45 15 -16 0 -29 5 -29 10 0 6 -9 10 -21 10 -12 0 -35 6 -52 14 -18 8 -52 17 -77 19 -24 3 -46 11 -48 16 -2 6 -25 11 -52 11 -26 0 -67 7 -90 15 -58 21 -577 21 -630 0z m526 -310 c27 -8 69 -15 94 -15 25 -1 56 -7 70 -15 14 -8 42 -14 62 -15 20 0 40 -4 43 -10 3 -5 16 -10 28 -10 12 0 35 -7 51 -15 15 -8 34 -15 41 -15 8 0 26 -7 42 -14 15 -8 35 -17 43 -20 8 -3 22 -10 30 -15 8 -5 43 -23 78 -40 89 -44 106 -54 115 -68 4 -7 13 -13 19 -13 6 0 35 -18 64 -40 29 -22 56 -40 60 -40 3 0 60 -53 126 -117 109 -108 248 -277 248 -303 0 -6 7 -13 15 -16 8 -4 15 -15 15 -25 0 -10 4 -19 10 -19 5 0 12 -11 16 -25 3 -13 12 -29 20 -36 8 -6 14 -20 14 -30 0 -11 5 -19 10 -19 6 0 10 -8 10 -18 0 -10 7 -27 15 -38 8 -10 15 -29 15 -40 0 -12 7 -27 15 -34 8 -7 15 -24 15 -39 0 -14 7 -35 15 -45 8 -11 15 -30 15 -43 0 -13 4 -31 9 -41 14 -27 32 -120 41 -217 5 -49 13 -119 19 -154 6 -42 6 -89 0 -140 -6 -42 -13 -114 -16 -161 -2 -47 -11 -104 -19 -128 -8 -23 -14 -58 -14 -77 0 -18 -4 -37 -10 -40 -5 -3 -10 -21 -10 -38 0 -18 -7 -45 -15 -61 -8 -15 -15 -38 -15 -50 0 -11 -7 -30 -15 -40 -8 -11 -15 -28 -15 -37 0 -10 -6 -30 -14 -46 -8 -15 -18 -39 -24 -53 -10 -26 -77 -165 -92 -190 -5 -8 -11 -22 -14 -30 -6 -16 -27 -51 -36 -60 -9 -9 -30 -44 -40 -67 -5 -13 -14 -23 -20 -23 -5 0 -10 -5 -10 -10 0 -13 -73 -115 -112 -154 -15 -17 -28 -34 -28 -39 0 -4 -6 -15 -14 -23 -8 -7 -16 -19 -19 -26 -2 -7 -7 -10 -10 -7 -4 3 -86 192 -183 420 -141 332 -173 417 -165 431 6 10 11 24 11 32 0 7 7 19 15 26 8 7 15 23 15 36 0 12 4 25 9 28 9 6 35 80 46 133 3 18 11 35 16 38 5 4 9 22 9 41 0 20 6 45 12 57 7 12 16 54 19 92 4 39 12 107 19 152 8 62 8 99 0 155 -7 40 -15 100 -19 133 -4 33 -12 70 -19 82 -7 12 -12 33 -12 47 0 13 -6 37 -14 53 -24 46 -46 100 -46 112 0 6 -4 11 -10 11 -5 0 -10 9 -10 19 0 11 -5 23 -11 26 -5 4 -14 17 -20 28 -14 33 -33 61 -46 70 -7 4 -13 13 -13 18 0 6 -6 16 -12 24 -7 7 -24 28 -38 46 -36 47 -132 138 -152 145 -10 3 -18 10 -18 15 0 5 -7 9 -15 9 -8 0 -15 4 -15 9 0 10 -13 18 -112 67 -84 41 -123 55 -183 64 -27 4 -63 13 -78 19 -16 6 -66 11 -112 11 -46 0 -96 -5 -112 -11 -15 -6 -50 -15 -78 -19 -60 -9 -99 -23 -183 -64 -99 -49 -112 -57 -112 -67 0 -5 -7 -9 -15 -9 -8 0 -15 -4 -15 -8 0 -4 -12 -15 -27 -24 -34 -20 -109 -92 -143 -137 -14 -18 -31 -39 -37 -46 -7 -8 -13 -18 -13 -24 0 -5 -6 -14 -12 -18 -14 -9 -33 -37 -47 -70 -6 -11 -15 -24 -20 -28 -6 -3 -11 -15 -11 -26 0 -10 -4 -19 -10 -19 -5 0 -10 -5 -10 -11 0 -12 -22 -66 -46 -112 -8 -16 -14 -40 -14 -53 0 -14 -5 -35 -12 -47 -7 -12 -15 -49 -19 -82 -4 -33 -12 -95 -19 -137 -9 -61 -9 -95 0 -155 7 -43 15 -109 19 -148 3 -38 12 -80 19 -92 6 -12 12 -37 12 -57 0 -19 4 -37 9 -41 5 -3 13 -20 16 -38 11 -53 37 -127 46 -133 5 -3 9 -16 9 -28 0 -13 7 -29 15 -36 8 -7 15 -18 15 -25 0 -6 11 -32 25 -56 13 -24 34 -62 45 -84 29 -58 43 -79 58 -88 6 -4 12 -13 12 -19 0 -29 257 -298 284 -298 7 0 25 -11 40 -25 15 -14 33 -25 40 -25 8 0 19 -7 26 -15 7 -8 22 -15 34 -15 12 0 30 -6 41 -14 55 -37 325 -37 380 0 11 8 29 14 41 14 12 0 27 7 34 15 7 8 21 15 31 15 11 0 19 4 19 10 0 5 18 19 40 30 40 20 200 172 257 243 l30 38 181 -428 c114 -270 177 -432 171 -438 -5 -5 -9 -18 -9 -30 0 -12 -7 -30 -15 -41 -8 -10 -15 -33 -15 -49 0 -17 -5 -36 -12 -43 -7 -7 -16 -38 -20 -70 -4 -31 -11 -79 -17 -107 -5 -27 -10 -132 -10 -232 -1 -110 -5 -184 -11 -188 -6 -3 -10 -28 -10 -54 0 -26 -7 -56 -15 -67 -8 -10 -15 -31 -15 -45 0 -14 -7 -34 -15 -45 -8 -10 -15 -29 -15 -40 0 -12 -7 -27 -15 -34 -8 -7 -15 -20 -16 -29 0 -9 -9 -29 -20 -46 -10 -16 -23 -40 -29 -52 -5 -13 -14 -23 -20 -23 -5 0 -10 -5 -10 -11 0 -31 -215 -249 -246 -249 -6 0 -17 -7 -24 -15 -14 -17 -133 -75 -155 -75 -8 0 -15 -4 -15 -10 0 -5 -17 -10 -37 -10 -21 0 -47 -7 -57 -15 -29 -22 -313 -22 -342 0 -10 8 -36 15 -56 15 -21 0 -38 5 -38 10 0 6 -7 10 -16 10 -18 0 -133 56 -155 76 -8 8 -20 14 -25 14 -32 0 -248 227 -277 290 -4 8 -16 29 -26 45 -11 17 -20 37 -20 46 -1 9 -8 22 -16 29 -8 7 -15 22 -15 34 0 11 -7 30 -15 40 -8 11 -15 31 -15 45 0 14 -7 35 -15 45 -8 11 -15 41 -15 67 0 26 -4 51 -10 54 -6 4 -10 77 -11 183 0 97 -5 200 -10 227 -6 28 -13 75 -16 105 -3 30 -11 64 -19 75 -8 10 -14 32 -14 46 0 15 -6 40 -14 56 -8 15 -22 46 -32 68 -9 22 -21 48 -25 57 -5 10 -9 25 -9 33 0 9 -7 18 -15 21 -8 4 -15 14 -15 24 0 10 -7 23 -15 30 -8 7 -15 17 -15 22 0 5 -18 33 -40 63 -22 30 -40 59 -40 65 0 6 -7 13 -15 16 -8 4 -15 12 -15 20 0 8 -4 14 -8 14 -10 0 -102 126 -102 140 0 6 -5 10 -10 10 -6 0 -15 10 -20 23 -11 25 -32 59 -41 67 -3 3 -8 12 -12 20 -4 8 -11 23 -17 33 -20 34 -30 53 -66 127 -20 41 -41 86 -46 100 -6 14 -16 38 -24 53 -8 16 -14 36 -14 46 0 9 -7 26 -15 37 -8 10 -15 29 -15 40 0 12 -7 35 -15 50 -8 16 -15 43 -15 61 0 17 -4 35 -10 38 -5 3 -10 22 -10 40 0 19 -6 54 -14 77 -8 24 -17 81 -20 128 -3 47 -10 119 -15 161 -6 50 -6 99 0 140 6 35 14 105 19 154 9 97 27 190 41 217 5 10 9 28 9 41 0 13 7 32 15 43 8 10 15 28 15 40 0 11 7 29 15 40 8 10 15 29 15 40 0 12 7 27 15 34 8 7 15 18 15 25 0 13 50 113 80 160 11 17 23 37 27 45 23 50 139 191 236 286 106 105 242 214 265 214 6 0 15 6 19 13 4 6 24 20 43 31 48 26 122 63 140 70 8 3 22 10 30 14 51 29 85 42 106 42 13 0 24 4 24 10 0 5 18 13 40 16 22 4 43 11 46 15 3 5 22 9 42 9 20 1 48 7 62 15 14 8 45 15 70 15 25 0 65 7 90 14 65 21 359 21 426 1z m-7 -1462 c275 -648 298 -713 261 -713 -6 0 -10 -8 -10 -19 0 -10 -7 -24 -15 -31 -8 -7 -15 -17 -15 -22 0 -18 -85 -125 -151 -189 -66 -65 -112 -96 -154 -105 -11 -2 -21 -8 -23 -14 -5 -13 -189 -13 -194 0 -2 6 -12 12 -23 14 -42 9 -88 40 -154 105 -66 64 -151 171 -151 189 0 5 -7 15 -15 22 -8 7 -15 21 -15 31 0 11 -3 19 -8 19 -4 0 -18 24 -31 53 -12 28 -27 60 -32 69 -5 10 -9 26 -9 37 0 10 -7 24 -15 31 -8 7 -15 27 -15 44 0 17 -7 40 -15 50 -8 11 -15 36 -15 55 -1 20 -7 47 -15 61 -21 37 -21 403 0 444 8 15 15 40 15 55 0 15 7 36 15 47 8 10 15 29 15 41 0 12 4 25 10 28 5 3 17 23 27 43 16 35 89 138 123 173 28 29 129 99 143 99 8 0 20 7 27 15 7 8 21 15 31 15 10 0 21 5 24 10 3 6 28 10 54 10 l48 0 282 -667z m-24 657 c3 -5 14 -10 24 -10 10 0 24 -7 31 -15 7 -8 19 -15 27 -15 27 0 141 -95 193 -161 28 -37 65 -95 81 -130 17 -35 37 -77 45 -92 7 -16 14 -39 14 -52 0 -12 7 -36 15 -51 24 -46 21 -382 -3 -451 l-18 -51 -217 512 c-119 282 -217 515 -217 519 0 11 18 8 25 -3z"/>
 </g>

</svg>