<!DOCTYPE svg PUBLIC "-//W3C//DTD SVG 20010904//EN" "http://www.w3.org/TR/2001/REC-SVG-20010904/DTD/svg10.dtd">
<svg version="1.0" xmlns="http://www.w3.org/2000/svg" width="711px" height="711px" viewBox="0 0 7110 7110" preserveAspectRatio="xMidYMid meet">
<g id="layer101" fill="#000000" stroke="none">
<path d="M3395 6300 c-22 -5 -68 -9 -102 -9 -34 -1 -74 -6 -90 -12 -15 -6 -50 -15 -78 -19 -70 -12 -152 -34 -161 -43 -4 -4 -15 -7 -25 -7 -10 0 -33 -6 -51 -14 -18 -8 -53 -22 -78 -31 -108 -42 -289 -138 -367 -196 -29 -22 -55 -39 -59 -39 -5 0 -184 -151 -220 -185 -12 -12 -98 -108 -134 -151 -46 -54 -111 -146 -151 -213 -22 -36 -44 -73 -49 -81 -12 -19 -67 -134 -87 -180 -8 -19 -21 -50 -29 -68 -8 -18 -14 -40 -14 -50 0 -9 -7 -26 -15 -36 -8 -11 -15 -31 -15 -44 0 -13 -5 -32 -11 -43 -6 -11 -15 -44 -20 -72 -5 -29 -17 -92 -27 -142 -13 -70 -17 -144 -16 -325 0 -237 10 -333 49 -490 8 -36 19 -81 24 -100 25 -107 100 -298 177 -452 78 -157 145 -259 317 -488 50 -65 121 -194 157 -285 37 -93 50 -176 60 -400 6 -126 16 -250 21 -275 6 -25 14 -63 18 -85 16 -83 73 -239 123 -333 88 -166 264 -363 407 -456 226 -147 499 -212 743 -175 267 40 456 136 648 328 176 177 280 361 340 601 7 25 16 59 21 75 12 34 28 249 29 373 0 47 4 81 9 78 5 -4 64 -135 131 -294 396 -933 358 -849 396 -867 22 -10 46 -14 64 -10 39 8 83 61 76 90 -3 11 -134 325 -291 696 -158 370 -289 688 -291 704 -7 39 53 143 172 303 151 203 189 262 268 420 77 154 152 345 177 452 5 19 16 64 24 100 39 156 49 253 49 485 1 177 -3 251 -16 320 -10 50 -22 113 -27 142 -5 28 -14 61 -20 72 -6 11 -11 30 -11 43 0 13 -7 33 -15 44 -8 10 -15 27 -15 36 0 10 -6 32 -14 50 -8 18 -21 49 -29 68 -20 46 -75 161 -87 180 -5 8 -27 45 -49 82 -96 161 -245 333 -401 465 -58 48 -113 93 -122 98 -9 6 -47 30 -85 55 -94 62 -96 63 -203 115 -52 26 -107 53 -122 61 -14 8 -33 14 -41 14 -8 0 -28 7 -43 15 -16 8 -37 15 -47 15 -9 0 -25 4 -35 9 -29 15 -127 41 -155 41 -14 0 -38 5 -54 11 -59 24 -453 46 -528 29z m405 -239 c361 -45 726 -234 1001 -517 179 -186 273 -335 388 -619 22 -55 43 -132 75 -280 32 -152 28 -492 -9 -665 -9 -41 -20 -93 -24 -115 -8 -45 -27 -104 -47 -153 -8 -18 -14 -40 -14 -50 0 -9 -7 -26 -15 -36 -8 -11 -15 -26 -15 -33 0 -27 -135 -304 -152 -311 -5 -2 -8 -8 -8 -14 0 -15 -84 -141 -153 -228 -23 -30 -62 -82 -86 -114 -44 -59 -44 -59 -56 -35 -30 56 -375 880 -375 894 0 8 11 38 24 67 21 46 42 108 88 257 6 19 14 60 19 90 5 31 13 81 18 111 13 73 13 264 0 320 -6 25 -14 68 -18 95 -8 47 -14 65 -49 160 -55 149 -149 293 -257 393 -66 61 -203 152 -229 152 -8 0 -19 6 -25 14 -6 8 -22 16 -34 19 -12 3 -57 15 -101 26 -110 29 -282 29 -392 0 -43 -12 -89 -23 -101 -26 -12 -3 -28 -11 -34 -19 -6 -8 -17 -14 -24 -14 -13 0 -74 -29 -85 -40 -3 -3 -23 -17 -45 -31 -81 -53 -197 -178 -262 -284 -19 -31 -69 -136 -85 -180 -35 -95 -41 -113 -49 -160 -4 -27 -12 -70 -18 -95 -13 -56 -13 -257 0 -330 5 -30 13 -80 18 -111 5 -30 13 -71 19 -90 66 -212 75 -236 144 -373 76 -151 179 -285 294 -385 55 -47 165 -121 180 -121 4 0 20 -6 37 -14 18 -8 43 -17 57 -19 14 -3 43 -10 65 -16 51 -13 129 -13 180 0 22 6 51 13 65 16 14 2 39 11 57 19 17 8 34 14 37 14 9 0 108 62 141 88 56 44 147 137 193 195 25 32 48 54 52 50 14 -16 390 -916 390 -933 0 -11 -4 -22 -10 -25 -5 -3 -10 -17 -10 -29 0 -13 -7 -37 -15 -52 -8 -16 -15 -39 -15 -51 0 -12 -7 -48 -15 -80 -10 -39 -15 -107 -15 -217 0 -151 -4 -194 -30 -326 -20 -105 -28 -132 -39 -143 -6 -6 -11 -19 -11 -28 0 -10 -7 -30 -14 -46 -8 -15 -17 -35 -20 -43 -3 -8 -19 -37 -36 -65 -17 -27 -33 -58 -36 -68 -4 -9 -10 -17 -14 -17 -4 0 -12 -11 -17 -23 -16 -35 -169 -193 -212 -219 -20 -12 -38 -25 -41 -28 -11 -13 -111 -70 -124 -70 -7 0 -19 -7 -26 -15 -7 -8 -22 -15 -34 -15 -12 0 -31 -7 -42 -15 -10 -8 -32 -15 -49 -15 -16 0 -52 -7 -79 -15 -63 -19 -189 -19 -252 0 -27 8 -61 15 -76 15 -14 0 -40 7 -57 15 -17 8 -45 22 -62 30 -17 8 -35 15 -41 15 -5 0 -53 29 -107 64 -162 107 -289 262 -373 456 -8 19 -23 52 -32 73 -9 21 -16 47 -16 58 0 11 -5 29 -11 40 -18 34 -30 155 -37 374 -4 116 -12 217 -17 225 -5 8 -12 35 -16 60 -10 67 -43 156 -106 285 -53 108 -54 110 -123 203 -53 72 -86 117 -155 213 -18 25 -47 72 -65 105 -18 32 -41 73 -51 89 -36 61 -109 221 -109 238 0 7 -7 22 -15 33 -8 10 -15 27 -15 36 0 10 -6 32 -14 50 -24 57 -46 132 -46 156 0 12 -4 30 -9 40 -46 90 -62 571 -25 747 30 141 61 250 80 287 8 14 14 31 14 37 0 20 82 184 141 281 111 183 269 353 451 487 111 82 135 97 253 157 184 92 368 149 539 166 48 5 91 12 95 15 8 9 282 -2 381 -14z m-333 -793 c22 -30 593 -1395 593 -1419 0 -15 -7 -32 -15 -39 -8 -7 -15 -16 -15 -21 0 -11 -62 -103 -72 -107 -5 -2 -8 -9 -8 -16 0 -13 -157 -176 -170 -176 -5 0 -15 -6 -22 -13 -14 -13 -57 -34 -124 -62 -72 -30 -180 -9 -277 52 -45 28 -197 172 -197 186 0 4 -17 31 -38 60 -21 29 -41 59 -45 67 -4 8 -11 22 -16 30 -5 8 -12 22 -15 30 -3 8 -10 22 -14 30 -36 62 -79 172 -91 230 -4 19 -13 45 -19 57 -7 12 -12 33 -12 47 0 14 -7 51 -15 83 -20 77 -20 293 0 359 8 27 15 61 15 76 0 15 4 29 9 33 5 3 13 19 16 37 12 53 82 180 138 248 86 105 178 172 306 221 57 21 76 23 88 7z m398 -74 c182 -119 289 -286 350 -545 17 -76 20 -274 4 -334 -6 -22 -14 -62 -18 -90 -4 -27 -14 -63 -21 -78 l-14 -28 -12 23 c-23 46 -474 1116 -474 1126 0 15 126 -35 185 -74z"/>
</g>
<g id="layer102" fill="#282828" stroke="none">
<path d="M3510 7010 c0 -6 -38 -10 -94 -10 -364 0 -871 -116 -1261 -289 -569 -253 -1054 -650 -1418 -1159 -110 -154 -245 -389 -318 -552 -18 -41 -38 -78 -44 -82 -5 -4 -7 -8 -3 -8 7 0 -2 -25 -38 -107 -10 -21 -18 -43 -20 -50 -6 -32 -68 -209 -75 -219 -5 -6 -6 -13 -4 -16 3 -3 0 -18 -6 -34 -7 -16 -11 -34 -10 -41 1 -6 -3 -14 -8 -18 -6 -3 -8 -12 -5 -19 3 -8 0 -17 -5 -21 -6 -3 -9 -11 -6 -16 4 -5 3 -15 -1 -21 -5 -7 -9 -19 -10 -28 -2 -8 -5 -33 -9 -55 -3 -22 -8 -49 -12 -60 -4 -11 -8 -29 -10 -40 -1 -11 -5 -33 -8 -50 -19 -111 -30 -213 -41 -395 -9 -150 -9 -180 1 -335 3 -66 7 -140 8 -165 1 -25 6 -51 10 -58 5 -7 6 -25 2 -41 -4 -17 -2 -32 5 -36 7 -4 9 -19 5 -35 -4 -17 -2 -31 5 -35 7 -4 9 -18 6 -30 -3 -13 -1 -27 5 -30 6 -4 8 -14 5 -22 -4 -9 -2 -21 4 -28 6 -7 11 -30 13 -51 1 -21 6 -44 10 -51 4 -6 4 -18 1 -27 -3 -9 -1 -16 6 -16 7 0 9 -8 5 -20 -4 -12 -2 -20 5 -20 7 0 9 -8 5 -20 -4 -12 -2 -20 5 -20 6 0 10 -6 9 -12 -1 -7 3 -26 9 -41 7 -16 9 -33 6 -39 -4 -6 -2 -13 3 -17 11 -7 76 -197 76 -221 0 -8 3 -17 7 -20 4 -3 29 -57 55 -120 94 -222 236 -478 366 -657 32 -45 59 -83 59 -86 0 -2 15 -21 34 -43 110 -127 166 -194 166 -197 0 -4 223 -227 227 -227 3 0 70 -56 197 -166 22 -19 41 -34 43 -34 3 0 41 -27 86 -59 179 -130 435 -272 657 -366 63 -26 117 -51 120 -55 3 -4 12 -7 20 -7 24 0 214 -65 221 -76 4 -5 11 -7 17 -3 6 3 23 1 39 -6 15 -6 34 -10 41 -9 6 1 12 -3 12 -9 0 -7 8 -9 20 -5 12 4 20 2 20 -5 0 -7 8 -9 20 -5 12 4 20 2 20 -5 0 -7 7 -9 16 -6 9 3 21 3 27 -1 7 -4 30 -9 51 -10 21 -2 44 -7 51 -13 7 -6 19 -8 28 -4 8 3 18 1 22 -5 3 -6 17 -8 30 -5 12 3 26 1 30 -6 4 -7 18 -9 35 -5 16 4 31 2 35 -5 4 -7 19 -9 36 -5 16 4 34 3 41 -2 7 -4 33 -9 58 -10 25 -1 99 -5 165 -8 66 -4 143 -8 170 -8 28 0 104 4 170 8 66 3 140 7 165 8 25 1 51 6 58 10 7 5 25 6 41 2 17 -4 32 -2 36 5 4 7 19 9 35 5 17 -4 31 -2 35 5 4 7 18 9 30 6 13 -3 27 -1 30 5 4 6 14 8 22 5 9 -4 21 -2 28 4 7 6 30 11 51 13 21 1 44 6 51 10 6 4 18 4 27 1 9 -3 16 -1 16 6 0 7 8 9 20 5 12 -4 20 -2 20 5 0 7 8 9 20 5 12 -4 20 -2 20 5 0 6 6 10 13 9 6 -1 25 3 40 9 16 7 33 9 39 6 6 -4 13 -2 17 3 7 11 197 76 221 76 8 0 17 3 20 7 3 4 57 29 120 55 222 94 478 236 657 366 45 32 83 59 86 59 2 0 21 15 43 34 127 110 194 166 197 166 4 0 227 223 227 227 0 3 56 70 166 197 19 22 34 41 34 43 0 3 27 41 59 86 130 179 272 435 365 657 27 63 53 117 57 118 5 2 7 7 4 11 -6 11 66 225 77 229 4 2 6 8 3 12 -7 11 17 100 26 100 4 0 5 9 2 20 -3 11 -1 20 5 20 6 0 8 9 5 20 -3 11 0 20 6 20 5 0 8 7 5 15 -3 8 -2 19 2 26 4 7 9 30 11 52 2 22 8 46 13 52 5 7 7 15 4 18 -4 3 -3 14 1 24 4 10 7 28 6 40 -1 11 2 24 8 27 6 4 8 20 5 35 -4 16 -1 32 5 35 6 4 8 18 5 32 -3 13 -3 32 2 41 4 10 8 38 10 63 1 25 5 99 9 165 4 66 8 140 8 165 0 80 -16 311 -29 415 -3 22 -7 56 -9 75 -8 64 -53 278 -84 392 -252 945 -869 1720 -1732 2177 -438 232 -1037 391 -1469 391 -49 0 -92 5 -95 10 -3 6 -24 10 -46 10 -21 0 -39 -4 -39 -10z m325 -235 c33 -2 80 -7 105 -10 25 -3 59 -5 77 -5 18 0 35 -5 38 -10 3 -6 17 -7 30 -4 12 3 26 1 30 -6 4 -6 15 -8 25 -5 10 3 21 1 25 -5 4 -6 15 -8 25 -5 10 3 21 1 25 -5 4 -6 15 -8 26 -5 11 4 19 2 19 -5 0 -7 6 -10 14 -7 16 7 139 -23 147 -35 3 -5 10 -8 15 -7 18 6 84 -12 84 -23 0 -5 7 -8 15 -4 8 3 15 1 15 -5 0 -6 7 -9 15 -5 8 3 15 1 15 -5 0 -6 7 -9 15 -5 8 3 15 2 15 -3 0 -5 10 -8 23 -8 35 0 237 -87 414 -178 162 -83 450 -265 460 -291 3 -8 10 -14 15 -14 15 0 148 -109 155 -126 3 -8 9 -14 15 -14 12 0 288 -276 288 -288 0 -6 6 -12 14 -15 17 -7 126 -140 126 -155 0 -5 6 -12 14 -15 26 -10 208 -298 291 -460 91 -177 178 -379 178 -414 0 -13 3 -23 8 -23 5 0 6 -7 3 -15 -4 -8 -1 -15 5 -15 6 0 8 -7 5 -15 -4 -8 -1 -15 5 -15 6 0 8 -7 5 -15 -4 -8 -1 -15 4 -15 11 0 29 -66 23 -84 -1 -5 2 -12 7 -15 12 -8 42 -131 35 -147 -3 -8 0 -14 7 -14 7 0 9 -8 5 -19 -3 -11 -1 -22 5 -26 6 -4 8 -15 5 -25 -3 -10 -1 -21 5 -25 6 -4 8 -15 5 -25 -3 -10 -1 -21 5 -25 7 -4 9 -18 6 -30 -3 -13 -2 -27 4 -30 5 -3 10 -20 10 -38 0 -18 2 -52 5 -77 12 -96 15 -173 15 -385 1 -302 -9 -423 -55 -645 -3 -14 -7 -34 -9 -45 -2 -11 -4 -20 -6 -20 -1 0 -3 -9 -4 -20 -4 -31 -28 -129 -35 -140 -3 -5 -7 -20 -9 -33 -1 -12 -8 -35 -14 -50 -6 -15 -12 -30 -13 -34 -2 -5 -4 -10 -5 -13 -1 -3 -4 -9 -5 -15 -1 -5 -4 -12 -5 -15 -1 -3 -4 -9 -5 -15 -1 -5 -3 -11 -4 -12 -2 -2 -4 -13 -7 -26 -8 -46 -97 -250 -176 -405 -89 -174 -220 -378 -342 -532 -102 -129 -382 -409 -511 -511 -223 -176 -525 -354 -788 -463 -233 -96 -535 -178 -802 -218 -172 -25 -698 -25 -870 0 -490 72 -952 247 -1345 508 -199 133 -340 248 -505 414 -468 467 -772 1045 -894 1700 -35 187 -42 282 -42 580 1 222 4 298 15 395 3 25 5 59 5 77 0 17 5 34 10 38 6 3 8 12 4 20 -3 8 -2 23 2 33 5 9 7 24 6 34 -1 9 2 19 8 22 5 3 7 15 4 25 -3 10 0 22 5 25 6 3 8 15 5 26 -3 12 0 20 6 20 7 0 10 4 6 9 -6 10 24 142 34 151 3 3 6 10 6 15 1 29 17 85 25 85 5 0 7 7 4 15 -4 8 -1 15 5 15 6 0 8 7 5 15 -4 8 -1 15 5 15 6 0 8 7 5 15 -4 8 -1 15 6 15 6 0 8 5 5 10 -10 16 79 230 172 413 84 166 272 463 299 474 8 3 14 10 14 15 0 15 109 148 126 155 8 3 14 9 14 15 0 12 276 288 288 288 6 0 12 6 15 14 7 17 140 126 155 126 5 0 12 6 15 14 10 26 298 208 460 291 177 91 379 178 414 178 13 0 23 3 23 8 0 5 7 6 15 3 8 -4 15 -1 15 5 0 6 7 8 15 5 8 -4 15 -1 15 5 0 6 7 8 15 5 8 -4 15 -1 15 4 0 11 66 29 84 23 5 -1 12 2 15 7 8 12 131 42 147 35 8 -3 14 0 14 7 0 7 8 9 19 5 11 -3 22 -1 26 5 4 6 15 8 25 5 10 -3 21 -1 25 5 4 6 15 8 25 5 10 -3 21 -1 25 5 4 7 18 9 30 6 13 -3 27 -2 30 4 3 5 20 10 38 10 18 0 52 2 77 5 25 3 71 7 102 8 31 2 59 5 62 7 5 6 415 2 501 -5z"/>
</g>


</svg>